HIERARCHY
ROOT Hips
{
	OFFSET	0.00	0.00	0.00
	CHANNELS 6 Xposition Yposition Zposition Zrotation Xrotation Yrotation
	JOINT LeftUpLeg
	{
		OFFSET	 0.126116	-0.014019	-0.065224
		CHANNELS 3 Zrotation Xrotation Yrotation
		JOINT LeftLeg
		{
			OFFSET	 0.000000	 0.000000	 0.569914
			CHANNELS 3 Zrotation Xrotation Yrotation
			JOINT LeftFoot
			{
				OFFSET	 0.000000	 0.000000	 0.544423
				CHANNELS 3 Zrotation Xrotation Yrotation
				JOINT LeftToeBase
				{
					OFFSET	 0.000000	 0.000000	 0.207117
					CHANNELS 3 Zrotation Xrotation Yrotation
					End Site
					{
						OFFSET	 0.000000	 0.000000	 0.207117
					}
				}
			}
		}
	}
	JOINT RightUpLeg
	{
		OFFSET	-0.124023	-0.008373	-0.065224
		CHANNELS 3 Zrotation Xrotation Yrotation
		JOINT RightLeg
		{
			OFFSET	 0.000000	 0.000000	 0.570047
			CHANNELS 3 Zrotation Xrotation Yrotation
			JOINT RightFoot
			{
				OFFSET	 0.000000	 0.000000	 0.544354
				CHANNELS 3 Zrotation Xrotation Yrotation
				JOINT RightToeBase
				{
					OFFSET	 0.000000	 0.000000	 0.207540
					CHANNELS 3 Zrotation Xrotation Yrotation
					End Site
					{
						OFFSET	 0.000000	 0.000000	 0.207540
					}
				}
			}
		}
	}
	JOINT Spine
	{
		OFFSET	 0.000184	-0.007763	 0.117403
		CHANNELS 3 Zrotation Xrotation Yrotation
		JOINT Spine1
		{
			OFFSET	 0.000000	 0.000000	 0.137269
			CHANNELS 3 Zrotation Xrotation Yrotation
			JOINT Spine2
			{
				OFFSET	 0.000000	 0.000000	 0.156879
				CHANNELS 3 Zrotation Xrotation Yrotation
				JOINT LeftShoulder
				{
					OFFSET	 0.080501	-0.002496	 0.160144
					CHANNELS 3 Zrotation Xrotation Yrotation
					JOINT LeftArm
					{
						OFFSET	 0.000000	 0.000000	 0.164363
						CHANNELS 3 Zrotation Xrotation Yrotation
						JOINT LeftForeArm
						{
							OFFSET	 0.000000	 0.000000	 0.364576
							CHANNELS 3 Zrotation Xrotation Yrotation
							JOINT LeftHand
							{
								OFFSET	 0.000000	 0.000000	 0.360812
								CHANNELS 3 Zrotation Xrotation Yrotation
								JOINT LeftHandIndex1
								{
									OFFSET	 0.000000	 0.000000	 0.086006
									CHANNELS 3 Zrotation Xrotation Yrotation
									JOINT LeftHandIndex2
									{
										OFFSET	 0.000000	 0.000000	 0.047236
										CHANNELS 3 Zrotation Xrotation Yrotation
										JOINT LeftHandIndex3
										{
											OFFSET	-0.004284	-0.000551	 0.038166
											CHANNELS 3 Zrotation Xrotation Yrotation
											End Site
											{
												OFFSET	-0.004284	-0.000551	 0.038166
											}
										}
									}
								}
							}
						}
					}
				}
				JOINT Neck
				{
					OFFSET	 0.000000	 0.000000	 0.176489
					CHANNELS 3 Zrotation Xrotation Yrotation
					JOINT Head
					{
						OFFSET	 0.000000	-0.001747	 0.077940
						CHANNELS 3 Zrotation Xrotation Yrotation
						End Site
						{
							OFFSET	 0.000000	-0.001747	 0.077940
						}
					}
				}
				JOINT RightShoulder
				{
					OFFSET	-0.080363	 0.000306	 0.159706
					CHANNELS 3 Zrotation Xrotation Yrotation
					JOINT RightArm
					{
						OFFSET	 0.000000	 0.000000	 0.164196
						CHANNELS 3 Zrotation Xrotation Yrotation
						JOINT RightForeArm
						{
							OFFSET	 0.000000	 0.000000	 0.365611
							CHANNELS 3 Zrotation Xrotation Yrotation
							JOINT RightHand
							{
								OFFSET	 0.000000	 0.000000	 0.360648
								CHANNELS 3 Zrotation Xrotation Yrotation
								JOINT RightHandIndex1
								{
									OFFSET	 0.000000	 0.000000	 0.069977
									CHANNELS 3 Zrotation Xrotation Yrotation
									JOINT RightHandIndex2
									{
										OFFSET	 0.000000	 0.000000	 0.052305
										CHANNELS 3 Zrotation Xrotation Yrotation
										JOINT RightHandIndex3
										{
											OFFSET	 0.009002	-0.000782	 0.042196
											CHANNELS 3 Zrotation Xrotation Yrotation
											End Site
											{
												OFFSET	 0.009002	-0.000782	 0.042196
											}
										}
									}
								}
							}
						}
					}
				}
			}
		}
	}
}
MOTION
Frames:    13
Frame Time: 0.03333334
-0.270454	-5.492464	 1.212950	-7.746825	 9.336247	 3.070003	 5.559976	-20.494870	 175.418300	-4.314252	-36.409370	-1.069343	-1.221384	 83.558380	-0.540399	-2.331507	 36.704220	-0.190567	-1.888585	-22.405960	-178.949000	-2.008895	-40.253830	-0.905276	-1.526994	 86.777660	 0.801216	 2.393953	 25.989190	-0.051114	-7.197583	 5.479969	-1.424554	-11.830370	 4.004633	-2.041119	-14.448310	 1.313299	-0.794599	-101.422900	 88.595420	-167.689400	 54.278580	 68.167850	-64.116170	-4.817652	-4.295482	-17.506710	 7.969519	-2.269199	-5.305247	-2.180511	-11.304590	 6.739063	-5.213516	-0.193813	 3.566525	-1.378229	 35.397820	-2.634230	 0.744775	 1.378611	 0.657769	-3.289031	 2.426131	 0.639591	 96.641830	 87.906320	 170.204300	-51.171200	 75.701610	 64.512860	-2.215219	-12.743350	 23.185560	-25.941160	-3.198221	 9.564311	-7.405681	-4.232955	-37.034230	 5.070815	-0.697434	-9.399699	-2.350882	 35.473990	 5.254307
-0.273507	-5.496951	 1.212193	-7.437450	 8.993204	 2.908353	 5.388702	-20.074990	 175.371300	-4.272144	-36.498460	-1.150349	-1.318192	 83.752890	-0.556021	-2.327129	 37.182740	-0.202528	-1.717115	-20.982020	-178.993600	-1.701106	-38.549350	-0.629802	-1.354816	 86.409480	 0.952225	 2.394658	 25.775360	-0.055602	-7.423950	 5.488254	-1.415973	-11.947070	 4.478093	-1.974023	-14.396450	 1.823402	-0.727445	-100.812200	 88.615620	-168.507300	 53.292350	 68.541260	-62.873490	-4.690241	-4.246238	-16.560300	 8.391085	-2.296961	-5.291431	-3.448480	-11.812190	 3.770444	-5.213516	-0.193813	 3.566525	-1.378229	 35.397820	-2.634230	 0.762068	 1.591501	 0.773321	-3.155473	 2.998773	 0.695387	 96.924590	 87.968470	 169.911000	-52.291520	 75.653130	 65.290350	-2.558445	-12.676060	 23.003410	-25.985090	-3.199235	 9.562464	-7.300629	-4.229269	-36.767660	 5.070815	-0.697434	-9.399699	-2.350882	 35.473990	 5.254307
-0.278404	-5.502393	 1.212047	-6.875165	 8.862703	 2.774350	 5.098420	-19.605830	 175.257800	-4.063974	-36.296490	-1.185266	-1.413725	 83.742890	-0.526265	-2.322814	 37.638920	-0.214050	-2.005644	-19.216370	-179.215100	-1.061141	-36.041990	-0.452986	-1.424913	 86.478130	 1.304057	 2.390903	 26.854120	-0.032863	-7.749165	 5.306437	-1.588506	-12.105620	 4.989511	-1.903342	-14.373980	 2.481158	-0.643486	-99.597790	 88.553820	-169.940000	 52.651210	 69.138310	-62.227580	-4.744646	-4.226965	-15.664590	 8.935330	-2.320148	-5.278474	-3.286040	-11.960900	 4.143653	-5.213516	-0.193813	 3.566525	-1.378229	 35.397820	-2.634230	 0.731130	 1.840411	 0.986783	-3.048907	 3.807373	 0.630519	 97.653240	 88.124030	 169.179200	-53.021600	 75.768810	 65.385850	-2.824667	-12.598190	 22.832850	-25.999870	-3.199891	 9.561992	-7.155468	-4.079912	-36.506820	 5.070815	-0.697434	-9.399699	-2.350882	 35.473990	 5.254307
-0.282846	-5.505830	 1.212462	-7.141684	 8.874672	 3.276302	 4.907641	-19.204950	 174.685200	-4.164860	-35.793840	-1.359107	-1.491421	 83.404000	-0.729720	-2.322666	 37.653350	-0.214422	-2.390098	-18.455030	-179.823600	-1.424341	-34.797520	-0.925115	-2.013093	 86.168960	 1.222162	 2.397305	 24.908220	-0.073672	-7.722674	 5.287348	-2.286413	-11.852500	 5.331673	-2.006596	-14.234530	 2.931979	-0.580931	-98.714550	 88.376830	-170.792100	 52.248670	 70.053660	-62.144040	-5.392122	-4.292578	-15.431680	 9.345111	-2.327243	-5.270973	-3.460398	-12.281030	 3.736469	-5.213516	-0.193813	 3.566525	-1.378229	 35.397820	-2.634230	 0.894811	 2.155637	 1.145142	-3.054847	 4.108310	 0.780347	 98.411940	 88.321940	 168.535200	-53.322360	 75.855740	 65.232350	-3.004919	-12.521250	 22.673660	-26.008880	-3.200985	 9.560568	-7.044227	-3.845099	-36.396250	 5.070815	-0.697434	-9.399699	-2.350882	 35.473990	 5.254307
-0.286200	-5.508035	 1.213165	-8.106805	 8.897533	 2.931664	 5.036466	-18.550650	 175.065700	-4.620461	-34.999260	-1.489185	-1.558004	 83.015500	-0.926914	-2.324427	 37.469840	-0.209766	-2.466618	-18.539490	-179.533700	-1.897841	-34.450720	-1.216142	-2.554408	 86.051570	 1.334962	 2.397360	 24.891590	-0.074016	-7.526021	 5.218355	-1.813535	-11.462570	 5.697381	-1.770643	-14.016920	 3.490034	-0.503348	-99.227570	 88.417370	-170.183200	 52.957460	 70.282040	-62.537390	-6.460397	-4.202542	-16.485870	 8.314924	-2.299002	-5.291903	-3.883474	-13.045870	 2.766139	-5.213516	-0.193813	 3.566525	-1.378229	 35.397820	-2.634230	 1.081512	 2.240143	 1.013489	-3.043993	 4.423428	 0.494720	 97.659630	 88.274330	 169.446900	-52.983670	 75.791660	 64.818710	-3.283762	-12.495590	 22.459510	-26.184030	-3.202948	 9.556602	-6.973775	-3.655299	-36.356850	 5.070815	-0.697434	-9.399699	-2.350882	 35.473990	 5.254307
-0.288792	-5.509049	 1.214209	-8.423052	 8.878578	 2.514885	 5.130684	-17.984450	 175.388200	-4.756604	-34.211800	-1.449962	-1.654946	 82.851010	-0.861041	-2.326488	 37.251090	-0.204247	-2.483407	-18.594570	-179.297800	-1.879620	-34.596830	-1.198328	-2.692281	 86.054240	 1.505550	 2.396375	 25.223690	-0.067117	-7.701726	 5.469225	-1.394604	-11.341160	 5.971102	-1.536869	-13.806570	 3.896432	-0.446473	-99.295330	 88.427040	-170.110400	 55.216650	 69.256470	-64.593400	-6.008458	-4.128411	-17.405330	 7.528624	-2.276534	-5.306265	-3.597231	-12.500240	 3.420171	-5.213516	-0.193813	 3.566525	-1.378229	 35.397820	-2.634230	 1.107525	 2.171825	 0.975772	-2.941727	 4.703586	 0.388607	 97.764550	 88.253140	 169.267300	-52.367570	 75.643450	 64.379910	-3.547569	-12.473580	 22.223590	-26.394380	-3.204350	 9.553712	-6.982028	-3.652001	-36.380840	 5.070815	-0.697434	-9.399699	-2.350882	 35.473990	 5.254307
-0.290650	-5.510180	 1.215266	-8.303041	 8.925931	 2.368230	 5.116375	-17.740530	 175.453600	-4.694456	-33.740570	-1.388559	-1.733225	 82.782840	-0.743485	-2.327365	 37.156740	-0.201885	-2.518509	-18.498720	-179.298100	-1.693737	-34.792870	-1.109784	-2.741391	 86.057080	 1.689915	 2.395190	 25.607770	-0.059105	-8.093505	 5.570902	-1.478719	-11.297790	 6.220408	-1.414016	-13.569810	 4.218874	-0.400322	-98.275960	 88.298420	-171.252400	 57.322200	 68.062230	-67.018340	-4.509003	-4.323989	-17.840090	 7.917528	-2.269499	-5.305241	-3.345107	-11.486010	 4.015842	-5.213516	-0.193813	 3.566525	-1.378229	 35.397820	-2.634230	 1.084759	 2.265755	 0.978425	-2.825761	 4.829671	 0.706176	 98.962170	 88.401990	 167.972600	-51.024020	 75.501370	 63.194670	-3.672302	-12.456550	 22.085290	-26.521120	-3.205281	 9.552220	-7.032222	-3.717882	-36.461370	 5.070815	-0.697434	-9.399699	-2.350882	 35.473990	 5.254307
-0.292078	-5.511184	 1.216080	-7.944775	 8.936920	 2.238689	 5.116889	-17.637400	 175.465600	-4.460186	-33.514970	-1.243556	-1.678385	 82.753460	-0.601138	-2.328174	 37.069850	-0.199696	-2.568468	-18.376850	-179.293400	-1.494199	-34.769570	-1.021561	-2.788886	 86.041660	 1.867690	 2.394675	 25.769960	-0.055712	-8.583700	 5.618992	-1.527756	-11.316050	 6.546957	-1.375027	-13.359670	 4.610727	-0.348073	-97.723020	 88.274440	-171.961200	 58.350080	 67.493200	-68.585090	-4.095797	-4.411564	-18.212990	 7.994668	-2.261010	-5.307961	-3.307201	-11.022120	 4.113451	-5.213516	-0.193813	 3.566525	-1.378229	 35.397820	-2.634230	 0.951835	 2.287644	 1.027335	-2.704961	 5.079555	 0.748105	 99.987460	 88.501450	 166.858700	-49.209090	 75.379740	 61.503110	-3.614939	-12.452720	 22.091420	-26.528910	-3.206245	 9.550420	-7.071218	-3.688902	-36.584670	 5.070815	-0.697434	-9.399699	-2.350882	 35.473990	 5.254307
-0.293000	-5.511837	 1.216712	-7.554429	 8.909346	 2.091426	 5.091413	-17.519500	 175.473600	-4.213919	-33.384620	-1.113080	-1.742621	 82.756250	-0.344206	-2.328742	 37.008430	-0.198157	-2.713598	-18.230980	-179.247500	-1.272518	-34.716080	-0.967700	-2.861870	 86.026790	 2.021033	 2.394750	 25.744720	-0.056239	-9.026299	 5.815852	-1.419645	-11.273470	 6.920062	-1.397905	-13.137850	 5.048661	-0.291661	-97.709130	 88.336230	-172.067600	 58.890820	 67.034620	-69.481460	-4.290777	-4.361269	-18.865660	 7.506847	-2.243406	-5.317081	-3.378576	-10.849680	 3.948905	-5.213516	-0.193813	 3.566525	-1.378229	 35.397820	-2.634230	 0.782665	 2.180652	 1.084015	-2.596913	 5.425640	 0.462050	 99.732870	 88.426040	 167.019500	-47.380710	 75.248330	 59.843350	-3.429249	-12.466270	 22.216220	-26.452010	-3.206138	 9.550478	-7.109420	-3.612912	-36.741990	 5.070815	-0.697434	-9.399699	-2.350882	 35.473990	 5.254307
-0.293807	-5.512490	 1.217098	-7.209213	 8.917928	 2.060291	 5.016397	-17.353370	 175.469000	-4.005335	-33.219550	-1.028586	-1.796088	 82.787870	-0.175501	-2.329889	 36.882820	-0.195013	-2.799537	-18.035440	-179.337500	-1.064925	-34.650060	-0.900899	-2.931903	 86.021080	 2.191296	 2.394714	 25.755950	-0.056006	-9.407379	 6.002565	-1.375828	-11.087470	 7.273892	-1.470818	-12.837990	 5.465177	-0.237910	-98.085760	 88.449720	-171.732100	 59.091110	 66.290310	-70.037560	-4.030056	-4.487650	-20.129260	 7.267544	-2.213433	-5.328339	-3.301210	-10.609070	 4.136045	-5.213516	-0.193813	 3.566525	-1.378229	 35.397820	-2.634230	 0.632109	 2.116039	 1.073207	-2.521443	 5.635326	 0.250708	 99.229680	 88.330590	 167.471700	-45.489320	 75.096880	 58.174910	-3.014422	-12.459030	 22.490350	-26.184910	-3.205561	 9.552996	-7.152475	-3.526491	-36.920350	 5.070815	-0.697434	-9.399699	-2.350882	 35.473990	 5.254307
-0.294073	-5.512696	 1.217334	-6.981877	 8.959071	 2.054845	 5.025026	-17.327910	 175.449500	-3.881360	-33.089120	-0.950164	-1.853484	 82.840770	-0.008407	-2.330529	 36.812750	-0.193266	-2.812912	-17.994360	-179.280700	-0.929477	-34.592040	-0.827532	-2.991219	 86.023300	 2.361199	 2.394544	 25.809360	-0.054889	-9.696836	 6.134558	-1.328302	-10.802930	 7.573726	-1.517707	-12.495010	 5.837463	-0.190561	-98.461270	 88.526080	-171.358100	 58.808410	 65.681470	-70.228710	-3.971659	-4.632147	-21.522470	 7.052790	-2.183841	-5.338782	-3.523493	-10.777690	 3.608533	-5.213516	-0.193813	 3.566525	-1.378229	 35.397820	-2.634230	 0.528251	 2.123590	 0.931520	-2.478007	 5.753050	 0.240033	 98.738000	 88.246990	 167.950300	-44.083540	 74.934300	 57.066700	-2.463413	-12.431840	 22.865380	-25.782120	-3.203939	 9.557090	-7.183712	-3.492199	-37.028090	 5.070815	-0.697434	-9.399699	-2.350882	 35.473990	 5.254307
-0.293912	-5.512379	 1.217595	-6.830392	 8.951637	 2.007816	 5.053236	-17.371320	 175.464300	-3.767473	-32.998530	-0.866948	-1.930691	 82.922990	 0.190581	-2.330606	 36.805030	-0.193071	-2.789903	-18.048000	-179.285400	-0.817626	-34.541480	-0.753241	-3.091477	 86.032030	 2.575172	 2.394230	 25.904980	-0.052886	-9.995378	 6.368100	-1.201509	-10.357030	 7.918176	-1.528706	-11.982290	 6.260809	-0.138011	-98.857870	 88.586400	-170.942600	 57.734480	 65.395430	-69.694530	-4.483350	-4.709169	-23.029850	 6.661053	-2.157676	-5.348179	-3.433736	-11.329650	 3.811764	-5.213516	-0.193813	 3.566525	-1.378229	 35.397820	-2.634230	 0.443629	 1.958722	 0.938425	-2.370514	 6.012225	-0.016118	 98.236470	 88.159630	 168.450900	-43.295860	 74.632100	 56.726990	-2.046654	-12.488290	 23.379470	-25.434430	-3.200895	 9.562139	-7.201987	-3.565174	-37.019270	 5.070815	-0.697434	-9.399699	-2.350882	 35.473990	 5.254307
-0.293253	-5.512111	 1.217803	-6.778146	 8.952007	 2.007330	 5.066655	-17.403410	 175.474800	-3.747899	-32.978810	-0.847266	-2.011081	 82.990390	 0.299714	-2.330472	 36.819290	-0.193429	-2.757617	-18.034440	-179.292200	-0.681260	-34.524270	-0.659973	-3.163589	 86.043980	 2.788697	 2.393763	 26.044830	-0.049948	-10.243200	 6.602347	-1.137006	-9.835752	 8.226950	-1.532288	-11.397220	 6.626647	-0.094491	-99.161690	 88.623280	-170.615200	 56.406180	 65.301190	-68.991330	-5.096262	-4.761485	-24.147460	 6.399154	-2.144120	-5.352790	-3.482061	-11.800580	 3.692800	-5.213516	-0.193813	 3.566525	-1.378229	 35.397820	-2.634230	 0.409330	 1.930347	 0.902717	-2.242455	 6.112387	-0.121487	 97.860600	 88.093920	 168.836900	-43.194630	 74.294240	 57.004310	-1.841421	-12.608160	 23.935060	-25.189930	-3.197176	 9.568222	-7.210292	-3.782426	-36.873990	 5.070815	-0.697434	-9.399699	-2.350882	 35.473990	 5.254307
